<?xml version="1.0" encoding="UTF-8"?>
<svg width="800" height="800" version="1.1" viewBox="0 0 800.00001 800.00001" xmlns="http://www.w3.org/2000/svg">
    <g transform="translate(0 -252.36)">
        <path d="m94.084 252.36-90.807 545.88-1.2765 254.12h796.57l-1.2765-254.12-90.807-545.88h-612.4zm26.165 34.4h560.07l88.149 510.62h-736.37l88.149-510.62zm277.88 77.764c-136.25 0-246.71 78.527-246.71 175.39-3.4e-4 96.868 110.46 175.4 246.71 175.4s246.71-78.527 246.71-175.4c3.4e-4 -96.868-110.46-175.39-246.71-175.39zm0 31.884c114.29 0 206.93 64.252 206.93 143.51 0 79.259-92.648 143.51-206.93 143.51-114.29 0-206.93-64.252-206.93-143.51 0-79.259 92.648-143.51 206.93-143.51zm0 94.964c-25.187 0-45.603 14.516-45.603 32.422-6e-5 17.906 20.416 32.422 45.603 32.422s45.603-14.516 45.603-32.422c6e-5 -17.906-20.416-32.422-45.603-32.422zm-366.03 339.33h736.37v189.2h-736.37v-189.2zm608.44 62.349a32.25 32.25 0 0 0 -32.25 32.25 32.25 32.25 0 0 0 32.25 32.25 32.25 32.25 0 0 0 32.25 -32.25 32.25 32.25 0 0 0 -32.25 -32.25z"
              color="#000000" color-rendering="auto" fill="#404040" image-rendering="auto" shape-rendering="auto"
              style="isolation:auto;mix-blend-mode:normal"/>
    </g>
</svg>
